PathFileType	4	(x/y/z)	S10_P20_T22
DataRate	CameraRate	NumFrames	NumMarkers	Units	OrigDataRate	OrigDataStartFrame	OrigNumFrames
240	240	8	51	mm	240	355	405
Frame#	Time	Sternum			R.Acromium			L.Acromium			Top.Head			R.ASIS			L.ASIS			R.PSIS			L.PSIS			R.Great.Tro			L.Great.Tro			R.Iliac.Crest			L.Iliac.Crest			V.Sacral			R.Thigh.Upper.Post			R.Thigh.Lower.Ant			R.Thigh.Lower.Post			R.Thigh.Upper.Ant			R.Knee.Lat			R.Knee.Med			R.Shank.Upper.Post			R.Shank.Lower.Ant			R.Shank.Lower.Post			R.Shank.Upper.Ant			R.Ankle.Lat			R.Ankle.Med			R.Heel.Upper			R.Heel.Med			R.Heel.Lat			R.Toe.Lat			R.Toe.Med			R.Toe.Tip			L.Thigh.Upper.Post			L.Thigh.Lower.Ant			L.Thigh.Lower.Post			L.Thigh.Upper.Ant			L.Knee.Lat			L.Knee.Med			L.Shank.Upper.Post			L.Shank.Lower.Ant			L.Shank.Lower.Post			L.Shank.Upper.Ant			L.Ankle.Lat			L.Ankle.Med			L.Heel.Upper			L.Heel.Med			L.Heel.Lat			L.Toe.Lat			L.Toe.Med			L.Toe.Tip			Cervical.Spine			Back			
		X1	Y1	Z1	X2	Y2	Z2	X3	Y3	Z3	X4	Y4	Z4	X5	Y5	Z5	X6	Y6	Z6	X7	Y7	Z7	X8	Y8	Z8	X9	Y9	Z9	X10	Y10	Z10	X11	Y11	Z11	X12	Y12	Z12	X13	Y13	Z13	X14	Y14	Z14	X15	Y15	Z15	X16	Y16	Z16	X17	Y17	Z17	X18	Y18	Z18	X19	Y19	Z19	X20	Y20	Z20	X21	Y21	Z21	X22	Y22	Z22	X23	Y23	Z23	X24	Y24	Z24	X25	Y25	Z25	X26	Y26	Z26	X27	Y27	Z27	X28	Y28	Z28	X29	Y29	Z29	X30	Y30	Z30	X31	Y31	Z31	X32	Y32	Z32	X33	Y33	Z33	X34	Y34	Z34	X35	Y35	Z35	X36	Y36	Z36	X37	Y37	Z37	X38	Y38	Z38	X39	Y39	Z39	X40	Y40	Z40	X41	Y41	Z41	X42	Y42	Z42	X43	Y43	Z43	X44	Y44	Z44	X45	Y45	Z45	X46	Y46	Z46	X47	Y47	Z47	X48	Y48	Z48	X49	Y49	Z49	X50	Y50	Z50	X51	Y51	Z51	

355	1.475	553.31	1262.9	336.25	416.85	1416.7	483.98	454.55	1466.2	192.99	411.19	1740.1	372.95	492.13	998.28	435.06	487.89	1005.4	204.26	289.69	1025.8	354.62	295.09	1032.7	272.86	427.87	925.12	511.13	415.22	947.95	148.18	400.26	1082.9	478.73	428.23	1083.8	177.72	268.98	996.69	316.31	502.02	721.15	502.96	571.75	663.34	455.44	520.24	633.91	490.59	553.86	752.66	462.54	557.06	520.34	445.42	528.66	516	318.51	565.78	285.67	450.37	648.15	250.61	432.44	593.12	216.58	443.92	625.46	324.27	438.26	651.23	118.54	423.39	651.85	133.3	344.59	610.31	54.936	375.69	627.46	31.934	348.29	623.47	33.921	410.65	789.52	79.59	450.47	809.9	97.076	343.25	857.84	134.25	383.53	320.87	689.44	162.24	368.03	592.81	191.11	295.95	597.22	190.97	395.57	676.92	167.42	303.85	504.55	200.85	318.97	502.45	330.35	164.81	330.57	207.27	191.3	224.04	223.12	137.7	258.29	218.98	219.34	294.67	211.57	115.72	132.25	233.59	136.51	142.45	318.56	39.339	115.93	277.84	43.307	82.926	311.36	38.674	84.668	246.35	207.99	39.971	208.26	237.9	43.754	316.68	292.64	45.58	269.33	358.92	1487.8	337.59	269.84	1284	305.14
356	1.4792	559.05	1262.2	336.74	422.82	1415.9	484.69	459.95	1465.7	193.67	416.65	1739.4	373.36	497.98	997.63	435.39	493.82	1004.7	204.58	295.55	1025.1	354.88	301.07	1032	273.18	433.79	924.48	511.34	421.09	947.28	148.42	406.02	1082.2	479.16	434.11	1083.2	178.01	274.86	995.95	316.57	508.14	720.63	502.84	577.78	662.84	455.14	526.31	633.4	490.35	559.92	752.18	462.41	562.9	519.76	445.07	533.71	515.39	318.4	570.84	285.03	450.04	652.89	249.64	431.65	597.83	215.85	443.55	630.54	323.37	437.48	655.34	117.78	422.79	655.44	132.34	343.95	613.61	55.183	375.45	630.22	31.9	348.01	626.61	34.097	410.43	793.25	77.808	449.18	813.15	94.972	341.78	861.74	131.63	381.81	326.12	688.88	162.8	373.28	592.19	191.23	301.22	596.75	191.34	400.92	676.27	167.59	308.86	504.09	201.02	324.19	501.77	330.54	168.32	331.51	207.21	193.61	224.7	222.87	140.43	259.52	218.82	222.47	295.02	211.44	116.97	133.55	233.39	138	143.56	318.21	40.566	118.1	277.49	44.196	85.218	311.15	39.505	86.715	246.14	208.14	39.914	208.2	238.18	43.792	316.47	292.73	45.432	269.3	364.59	1487.1	338.45	275.55	1283.3	305.92
357	1.4833	564.79	1261.6	337.26	428.79	1415.1	485.42	465.34	1465.2	194.36	422.11	1738.8	373.77	503.85	997.03	435.73	499.78	1004.1	204.91	301.44	1024.4	355.13	307.08	1031.3	273.49	439.74	923.88	511.57	427	946.6	148.67	411.8	1081.5	479.59	440.03	1082.7	178.32	280.77	995.23	316.81	514.32	720.18	502.72	583.88	662.42	454.86	532.46	632.96	490.12	566.04	751.77	462.28	568.78	519.22	444.73	538.99	514.88	318.3	575.72	284.45	449.71	657.4	248.62	430.9	602.28	215.15	443.21	635.49	322.44	436.72	659.07	116.98	422.23	658.7	131.33	343.34	616.47	55.482	375.24	632.5	31.897	347.76	629.26	34.301	410.23	796.52	75.791	447.97	816	92.621	340.41	865.29	128.67	380.21	331.46	688.25	163.42	378.68	591.55	191.36	306.64	596.22	191.75	406.39	675.6	167.78	314.06	503.61	201.19	329.61	501.05	330.74	171.98	332.48	207.14	196.06	225.4	222.63	143.31	260.8	218.65	225.74	295.39	211.31	118.32	134.91	233.17	139.59	144.71	317.84	41.912	120.4	277.14	45.187	87.639	310.94	40.426	88.888	245.94	208.29	39.866	208.13	238.47	43.82	316.25	292.81	45.288	269.28	370.26	1486.5	339.33	281.28	1282.6	306.72
358	1.4875	570.55	1261	337.8	434.77	1414.4	486.17	470.73	1464.7	195.06	427.57	1738.3	374.19	509.74	996.48	436.1	505.75	1003.6	205.26	307.33	1023.7	355.37	313.1	1030.6	273.78	445.72	923.32	511.8	432.95	945.93	148.94	417.59	1080.8	480.03	445.97	1082.2	178.63	286.7	994.53	317.05	520.54	719.78	502.61	590.05	662.07	454.61	538.67	632.57	489.91	572.22	751.42	462.17	574.71	518.72	444.42	544.5	514.45	318.22	580.41	283.91	449.41	661.71	247.57	430.2	606.5	214.46	442.89	640.3	321.5	436	662.47	116.16	421.72	661.65	130.29	342.79	618.94	55.828	375.06	634.36	31.927	347.55	631.47	34.532	410.06	799.37	73.577	446.88	818.5	90.066	339.17	868.5	125.42	378.76	336.9	687.57	164.09	384.26	590.87	191.5	312.23	595.63	192.17	411.97	674.93	167.99	319.44	503.08	201.38	335.23	500.28	330.93	175.8	333.47	207.08	198.64	226.14	222.38	146.33	262.12	218.48	229.16	295.78	211.16	119.77	136.35	232.95	141.3	145.91	317.46	43.395	122.82	276.79	46.293	90.198	310.74	41.45	91.199	245.74	208.44	39.832	208.08	238.78	43.835	316.02	292.88	45.146	269.26	375.93	1485.9	340.22	287.01	1282	307.53
359	1.4917	576.32	1260.4	338.37	440.75	1413.7	486.92	476.11	1464.3	195.77	433.03	1737.7	374.6	515.65	995.98	436.47	511.73	1003.1	205.62	313.25	1023.1	355.61	319.13	1030	274.06	451.73	922.8	512.06	438.94	945.26	149.21	423.4	1080.2	480.48	451.93	1081.7	178.96	292.66	993.84	317.28	526.79	719.45	502.5	596.28	661.77	454.39	544.93	632.25	489.73	578.43	751.13	462.07	580.67	518.27	444.13	550.21	514.13	318.15	584.95	283.44	449.12	665.84	246.49	429.56	610.5	213.82	442.6	645.01	320.56	435.33	665.56	115.34	421.25	664.34	129.24	342.28	621.06	56.218	374.9	635.86	31.992	347.37	633.29	34.79	409.91	801.84	71.21	445.9	820.69	87.351	338.07	871.43	121.94	377.47	342.44	686.81	164.81	390	590.18	191.65	317.99	594.97	192.62	417.68	674.24	168.2	325.03	502.52	201.56	341.06	499.45	331.12	179.8	334.49	207.02	201.37	226.9	222.12	149.5	263.48	218.3	232.73	296.19	211	121.35	137.86	232.73	143.14	147.16	317.06	45.03	125.38	276.45	47.529	92.903	310.55	42.59	93.656	245.56	208.6	39.813	208.02	239.1	43.839	315.78	292.94	45.005	269.24	381.61	1485.3	341.13	292.75	1281.4	308.36
360	1.4958	582.1	1259.8	338.95	446.73	1413	487.69	481.49	1463.9	196.48	438.49	1737.2	375.01	521.57	995.52	436.86	517.73	1002.6	206	319.17	1022.5	355.85	325.16	1029.3	274.34	457.76	922.33	512.33	444.97	944.59	149.49	429.22	1079.6	480.94	457.91	1081.2	179.3	298.63	993.18	317.51	533.07	719.17	502.41	602.54	661.54	454.21	551.22	631.99	489.56	584.67	750.9	461.99	586.65	517.86	443.87	556.13	513.9	318.08	589.35	283.02	448.85	669.82	245.4	428.97	614.31	213.21	442.33	649.61	319.62	434.71	668.38	114.53	420.82	666.81	128.21	341.83	622.88	56.645	374.76	637.05	32.09	347.22	634.77	35.072	409.77	803.97	68.733	445.04	822.61	84.524	337.1	874.09	118.27	376.34	348.09	686	165.58	395.93	589.45	191.8	323.92	594.25	193.08	423.52	673.53	168.43	330.83	501.92	201.74	347.11	498.56	331.29	183.98	335.55	206.97	204.25	227.71	221.86	152.85	264.9	218.13	236.46	296.62	210.83	123.06	139.44	232.49	145.12	148.47	316.64	46.836	128.09	276.12	48.911	95.763	310.37	43.863	96.272	245.39	208.76	39.814	207.98	239.43	43.832	315.53	292.99	44.864	269.23	387.29	1484.7	342.05	298.5	1280.8	309.19
361	1.5	587.9	1259.3	339.56	452.72	1412.3	488.46	486.86	1463.6	197.19	443.95	1736.8	375.42	527.51	995.12	437.27	523.72	1002.1	206.39	325.1	1021.9	356.09	331.18	1028.7	274.61	463.81	921.9	512.63	451.02	943.92	149.78	435.07	1079	481.4	463.89	1080.8	179.66	304.61	992.55	317.74	539.36	718.96	502.33	608.83	661.37	454.06	557.53	631.78	489.41	590.94	750.72	461.93	592.65	517.5	443.65	562.23	513.77	318.04	593.63	282.67	448.61	673.66	244.33	428.44	617.96	212.65	442.09	654.12	318.71	434.15	670.97	113.75	420.44	669.1	127.2	341.42	624.45	57.105	374.65	637.99	32.221	347.1	635.97	35.377	409.65	805.8	66.194	444.31	824.31	81.633	336.28	876.51	114.49	375.38	353.86	685.11	166.38	402.04	588.69	191.96	330.04	593.46	193.55	429.49	672.82	168.66	336.85	501.27	201.91	353.41	497.61	331.44	188.35	336.64	206.92	207.31	228.56	221.59	156.37	266.37	217.95	240.36	297.09	210.64	124.92	141.11	232.26	147.25	149.84	316.2	48.831	130.95	275.8	50.457	98.786	310.2	45.285	99.058	245.23	208.93	39.839	207.94	239.78	43.815	315.26	293.04	44.721	269.23	392.97	1484.2	342.98	304.26	1280.3	310.03
362	1.5042	593.71	1258.8	340.19	458.72	1411.7	489.24	492.23	1463.2	197.91	449.4	1736.4	375.83	533.45	994.76	437.68	529.72	1001.7	206.8	331.03	1021.3	356.34	337.21	1028.1	274.88	469.88	921.52	512.95	457.09	943.27	150.09	440.93	1078.6	481.87	469.87	1080.4	180.03	310.61	991.95	317.97	545.65	718.8	502.27	615.14	661.26	453.96	563.84	631.64	489.29	597.22	750.61	461.89	598.65	517.19	443.47	568.48	513.73	318.01	597.8	282.38	448.4	677.39	243.27	427.98	621.48	212.14	441.88	658.55	317.83	433.65	673.34	112.99	420.09	671.22	126.23	341.05	625.8	57.59	374.55	638.71	32.382	347	636.92	35.702	409.54	807.35	63.636	443.7	825.82	78.719	335.6	878.73	110.63	374.58	359.76	684.18	167.2	408.35	587.91	192.11	336.36	592.59	194.02	435.61	672.1	168.9	343.1	500.59	202.06	359.95	496.6	331.56	192.93	337.76	206.86	210.55	229.45	221.31	160.09	267.9	217.78	244.45	297.58	210.43	126.93	142.86	232.01	149.54	151.27	315.75	51.036	133.97	275.5	52.184	101.98	310.04	46.873	102.02	245.09	209.12	39.894	207.9	240.15	43.791	314.99	293.08	44.574	269.23	398.65	1483.7	343.93	310.01	1279.8	310.89
